<?xml version="1.0" encoding="UTF-8"?>
<svg xmlns="http://www.w3.org/2000/svg" xmlns:xlink="http://www.w3.org/1999/xlink" width="70.018mm" height="60.000mm" viewBox="-70.000000 0.000000 70.018127 60.000000">
    <circle transform="matrix(-1,0,0,1,-22.85,14.1)" style="stroke:#000000;stroke-width:0.05mm;fill:none" r="1" cx="0" cy="0"/>
    <circle transform="matrix(-1,0,0,1,-47.400002,14.35)" style="stroke:#000000;stroke-width:0.05mm;fill:none" r="1" cx="0" cy="0"/>
    <circle transform="matrix(-1,0,0,1,-23.1,46.150002)" style="stroke:#000000;stroke-width:0.05mm;fill:none" r="1" cx="0" cy="0"/>
    <circle transform="matrix(-1,0,0,1,-47.400002,46.150002)" style="stroke:#000000;stroke-width:0.05mm;fill:none" r="1" cx="0" cy="0"/>
    <circle transform="matrix(-1,0,0,1,-5,5)" style="stroke:#000000;stroke-width:0.05mm;fill:none" r="1.5" cx="0" cy="0"/>
    <circle transform="matrix(-1,0,0,1,-65,5)" style="stroke:#000000;stroke-width:0.05mm;fill:none" r="1.5" cx="0" cy="0"/>
    <circle transform="matrix(-1,0,0,1,-65,55)" style="stroke:#000000;stroke-width:0.05mm;fill:none" r="1.5" cx="0" cy="0"/>
    <circle transform="matrix(-1,0,0,1,-5,55)" style="stroke:#000000;stroke-width:0.05mm;fill:none" r="1.5" cx="0" cy="0"/>
    <circle transform="matrix(-1,0,0,1,-38.150002,36.400002)" style="stroke:#000000;stroke-width:0.05mm;fill:none" r="0.499996" cx="0" cy="0"/>
    <circle transform="matrix(-1,0,0,1,-38.150002,33.900002)" style="stroke:#000000;stroke-width:0.05mm;fill:none" r="0.499996" cx="0" cy="0"/>
    <circle transform="matrix(-1,0,0,1,-38.150002,31.4)" style="stroke:#000000;stroke-width:0.05mm;fill:none" r="0.499996" cx="0" cy="0"/>
    <circle transform="matrix(-1,0,0,1,-35.650002,31.4)" style="stroke:#000000;stroke-width:0.05mm;fill:none" r="0.499996" cx="0" cy="0"/>
    <circle transform="matrix(-1,0,0,1,-35.650002,36.400002)" style="stroke:#000000;stroke-width:0.05mm;fill:none" r="0.499996" cx="0" cy="0"/>
    <path transform="matrix(-1,0,0,1,0,0)" style="stroke:#000000;stroke-width:0.05mm;fill:none" d="M23,0.024C25.55759,0.277745,27.50556,2.429855,27.504,5L27.504,19C27.500362,19.336203,27.535255,19.67174,27.608,20L27.472,20L27.472,23C27.472,25.761425,29.710575,28,32.472,28L37.472,28C40.233425,28,42.472,25.761425,42.472,23L42.472,20L42.400002,20C42.472744,19.671741,42.507637,19.336205,42.504002,19L42.504002,5C42.50032,2.336828,44.588097,0.139908,47.248001,0.008L47.504002,0L65,0C67.66317,-0.003682,69.860092,2.084095,69.991997,4.744L70,5L70,8.088C69.998039,8.801077,69.617294,9.459022,69,9.816L62.52,13.56C60.969444,14.449141,60.013977,16.100599,60.015999,17.888L60.015999,42.112C60.013958,43.899403,60.969433,45.550865,62.52,46.439999L69,50.183998C69.617287,50.540985,69.99807,51.198921,70,51.911999L70,55C70.003685,57.663174,67.915901,59.860092,65.255997,59.992001L65,60L47.504002,60C44.840832,60.003696,42.643917,57.915909,42.512001,55.256001L42.504002,55L42.504002,45C42.507679,42.33683,40.419903,40.139919,37.759998,40.007999L37.504002,40L32.504002,40C29.840828,39.996307,27.643896,42.084091,27.511999,44.743999L27.504,45L27.504,55C27.507689,57.663174,25.419905,59.860092,22.76,59.992001L22.504,60L5,60C2.336829,60.003685,0.139907,57.915905,0.008,55.256001C-0.061238,54.732586,0.007685,54.200497,0.208,53.712002C0.378245,53.356522,0.65514,53.062847,1,52.872002L7.808,48.936001C9.358559,48.04686,10.314022,46.395401,10.312,44.608002L10.312,15.384C10.314024,13.596601,9.358561,11.945143,7.808,11.056L1,7.12C0.382707,6.763022,0.001952,6.105077,0,5.392C-0.205604,2.631362,1.863663,0.225573,4.624,0.016L5,0L22.504,0L23,0.024z"/>
    <path transform="matrix(-1,0,0,1,0,0)" style="stroke:none;fill:#0000ff;fill-rule:evenodd" d="M60.150009,44.196907L52.147591,44.196907L52.147591,48.912689L60.150009,48.912689L60.150009,44.196907z"/>
    <path transform="matrix(-1,0,0,1,0,0)" style="stroke:none;fill:#0000ff;fill-rule:evenodd" d="M60.150009,44.196907L52.147591,44.196907L52.147591,48.912689L60.150009,48.912689L60.150009,44.196907z"/>
</svg>
