<svg xmlns="http://www.w3.org/2000/svg" width="500" height="500" viewBox="0 0 500 500" version="1.1"><path d="M 333.799 91.559 C 361.800 121.948, 375.760 158.563, 372.124 192.085 C 369.161 219.406, 357.903 242.540, 337.337 263.571 C 315.885 285.508, 289.473 300.953, 260.353 308.591 C 233.874 315.536, 200.901 316.765, 172 311.884 C 146.523 307.581, 118.678 296.035, 101.704 282.734 C 99.616 281.097, 97.669 279.998, 97.377 280.290 C 95.614 282.053, 114.186 302.966, 126 312.520 C 132.874 318.079, 148.171 327.650, 153.931 329.996 L 157.363 331.393 154.654 332.117 C 151.987 332.831, 143.304 331.893, 135.528 330.051 C 133.344 329.534, 131.410 329.257, 131.231 329.436 C 130.425 330.241, 141.130 337.050, 147 339.465 C 161.433 345.403, 189.088 347.866, 208.136 344.911 C 211.997 344.312, 215.396 344.063, 215.690 344.357 C 216.538 345.204, 209.897 348.922, 205.500 350.062 C 203.300 350.632, 200.825 351.350, 200 351.657 C 197.224 352.689, 202.106 353.856, 209.500 353.926 C 228.751 354.108, 257.656 345.767, 275.215 334.963 C 280.025 332.003, 280.142 331.982, 279.498 334.210 C 278.465 337.780, 275.690 341.231, 271.222 344.500 C 268.967 346.150, 267.095 347.890, 267.061 348.367 C 266.987 349.425, 279.927 348.301, 289.500 346.418 C 338.536 336.774, 373.493 305.345, 389.512 256.500 C 394.962 239.882, 396.372 230.621, 396.440 211 C 396.477 200.120, 395.987 190.852, 395.143 186.500 C 388.420 151.816, 376.083 128.051, 352.536 104.421 C 342.368 94.217, 329.827 84, 327.471 84 C 327.120 84, 329.968 87.402, 333.799 91.559 M 147.272 183 C 147.272 185.475, 147.467 186.488, 147.706 185.250 C 147.944 184.012, 147.944 181.988, 147.706 180.750 C 147.467 179.512, 147.272 180.525, 147.272 183 M 101.286 190.500 C 101.294 193.250, 101.488 194.256, 101.718 192.736 C 101.947 191.216, 101.941 188.966, 101.704 187.736 C 101.467 186.506, 101.279 187.750, 101.286 190.500 M 176.762 269.707 C 178.006 269.946, 179.806 269.937, 180.762 269.687 C 181.718 269.437, 180.700 269.241, 178.500 269.252 C 176.300 269.263, 175.518 269.468, 176.762 269.707" stroke="none" fill="#eb7463" fill-rule="evenodd"/><path d="M 234.917 60.417 C 234.687 60.646, 230.312 61.301, 225.193 61.873 C 215.330 62.974, 215.051 63.040, 199.500 68.010 C 189.993 71.048, 178.650 76.155, 171 80.839 C 169.075 82.018, 166.825 83.292, 166 83.670 C 158.715 87.008, 132.606 110.780, 128.395 117.908 C 127.391 119.609, 126.216 121, 125.784 121 C 125.353 121, 125 121.638, 125 122.417 C 125 123.196, 124.627 123.983, 124.171 124.167 C 123.107 124.594, 114.892 138.183, 111.486 145.148 C 108.706 150.834, 106.689 156.271, 104.320 164.461 C 102.587 170.454, 101.611 201.476, 102.967 207.500 C 105.031 216.675, 105.988 219.400, 109.941 227.381 C 118.675 245.013, 134.699 258.189, 156.500 265.669 C 163.509 268.074, 166.048 268.419, 177 268.457 C 188.426 268.496, 189.973 268.277, 195 265.905 C 204.727 261.315, 218.032 249.100, 222.989 240.211 C 223.820 238.720, 224.838 237.350, 225.250 237.167 C 225.662 236.983, 226 236.270, 226 235.582 C 226 234.619, 224.563 234.537, 219.750 235.225 C 199.109 238.176, 178.256 231.054, 160.784 215.086 C 150.500 205.686, 145.737 190.906, 148.034 175.521 C 149.158 167.998, 151.099 160.089, 152.949 155.500 C 163.142 130.213, 183.117 108.291, 206 97.277 C 243.271 79.337, 291.765 85.598, 319.361 111.912 C 334.155 126.018, 341.892 140.703, 348.121 166.500 C 350.009 174.319, 350.306 178.519, 350.385 198.500 C 350.479 222.481, 350.341 224.288, 346.983 242.881 C 345.853 249.140, 345.132 254.465, 345.380 254.713 C 346.314 255.647, 356.357 240.123, 361.045 230.500 C 383.274 184.871, 373.492 135.547, 333.372 90.968 C 327.391 84.323, 324.053 81.583, 317.867 78.242 C 301.078 69.173, 283.403 63.649, 262.948 61.076 C 254.612 60.027, 235.750 59.584, 234.917 60.417 M 290 103.458 C 287.525 104.161, 282.644 106.371, 279.154 108.369 C 275.664 110.366, 272.582 112, 272.305 112 C 272.029 112, 270.384 112.614, 268.651 113.364 C 262.557 116.003, 257.453 117.856, 252.750 119.140 C 250.137 119.853, 248 120.779, 248 121.198 C 248 121.617, 249.688 122.831, 251.750 123.897 C 253.813 124.962, 256.052 126.748, 256.726 127.866 C 257.801 129.646, 257.596 130.151, 255.072 131.949 C 253.488 133.077, 251.248 134, 250.096 134 C 248.943 134, 248 134.607, 248 135.348 C 248 136.885, 256.782 140, 261.115 140 C 262.702 140, 264 140.367, 264 140.816 C 264 141.777, 254.610 145.713, 251 146.266 C 247.642 146.779, 249.709 147.474, 258.769 148.875 C 273.685 151.183, 292.414 149.633, 300.928 145.386 C 309.475 141.122, 315 131.732, 315 121.468 C 315 112.290, 310.020 104.998, 302.450 103.092 C 297.203 101.771, 295.790 101.812, 290 103.458 M 269.500 152.504 C 260.672 153.888, 250.913 156.247, 246.042 158.174 C 244.690 158.709, 240.899 160.076, 237.618 161.212 C 232.612 162.944, 218.282 169.848, 212.113 173.500 C 206.522 176.809, 196.854 184.441, 192.921 188.650 C 188.001 193.913, 184.477 198.811, 185.136 199.469 C 185.359 199.692, 188.908 197.718, 193.021 195.082 C 219.778 177.932, 240.505 170.298, 249.159 174.405 C 258.811 178.985, 258.267 191.467, 247.444 213.756 C 243.799 221.262, 229.444 243.993, 227.081 246 C 226.757 246.275, 223.811 249.875, 220.535 254 C 213.408 262.973, 188.494 288.164, 178 297.008 C 173.875 300.485, 170.362 303.669, 170.193 304.086 C 169.861 304.904, 173.271 304.330, 176.500 303.025 C 180.735 301.313, 199.646 291.836, 202.500 289.996 C 204.150 288.931, 206.785 287.336, 208.355 286.450 C 212.651 284.027, 229.572 271.415, 237.500 264.727 C 260.883 245.002, 300.035 200.794, 305.895 187.500 C 310.105 177.949, 311.162 168.147, 308.530 163.058 C 303.683 153.685, 288.376 149.546, 269.500 152.504 M 314 170.186 C 314 176.530, 310.783 188.457, 306.920 196.439 C 305.339 199.706, 304.211 202.544, 304.414 202.747 C 304.788 203.122, 315.085 197.112, 316 195.984 C 316.275 195.645, 318.525 193.986, 321 192.297 C 325.649 189.123, 341.526 173.598, 343.223 170.566 C 344.602 168.101, 343.928 167.911, 339.462 169.501 C 337.283 170.277, 332.558 170.932, 328.962 170.956 C 323.132 170.995, 322.050 170.680, 318.962 168.041 C 317.058 166.413, 315.163 165.063, 314.750 165.041 C 314.337 165.018, 314 167.334, 314 170.186 M 287 226.780 C 282.867 228.777, 277.399 233.555, 265 246.001 C 255.925 255.110, 244 266.130, 238.500 270.489 C 233 274.849, 228.275 278.689, 228 279.024 C 227.725 279.358, 225.250 281.148, 222.500 283 C 219.750 284.852, 217.275 286.641, 217 286.975 C 216.725 287.308, 212.087 290.479, 206.693 294.022 C 201.299 297.564, 197.333 300.611, 197.880 300.793 C 198.427 300.976, 201.490 300.615, 204.687 299.993 C 207.884 299.370, 211.850 298.623, 213.500 298.333 C 216.254 297.850, 227.244 295.070, 234.500 293.022 C 237.784 292.095, 243.362 290.169, 246.500 288.878 C 247.600 288.425, 250.975 287.122, 254 285.982 C 273.379 278.676, 296.105 263.874, 305.087 252.708 C 312.113 243.971, 314.218 234.072, 310.246 228.442 C 306.564 223.223, 295.931 222.463, 287 226.780 M 358.752 369.716 C 356.878 370, 355.815 370.888, 355.408 372.509 C 354.549 375.932, 355.523 376.844, 359.233 376.092 C 362.011 375.528, 362.547 374.948, 362.813 372.215 C 362.986 370.447, 362.761 369.067, 362.313 369.150 C 361.866 369.232, 360.264 369.487, 358.752 369.716 M 145.508 370.991 C 143.134 371.408, 142.410 372.134, 142 374.508 C 141.557 377.073, 141.014 377.524, 138.196 377.665 C 133.477 377.901, 130.257 380.410, 128.912 384.898 C 127.909 388.246, 128.011 389.355, 129.621 392.652 L 131.500 396.500 138.799 396.367 C 142.814 396.294, 146.357 395.976, 146.672 395.661 C 147.473 394.861, 149.163 377.285, 148.799 373.543 C 148.525 370.721, 148.253 370.510, 145.508 370.991 M 155.368 371.145 L 152.237 371.996 151.585 380.748 C 151.227 385.562, 150.684 391.188, 150.379 393.250 C 149.884 396.594, 150.057 397, 151.978 397 C 153.162 397, 154.975 396.549, 156.005 395.997 C 157.257 395.327, 158.084 395.327, 158.498 395.997 C 159.192 397.119, 162.984 397.327, 165.455 396.379 C 169.710 394.746, 171.720 382.809, 168.250 379.785 C 165.737 377.596, 163.832 377.164, 161.118 378.169 C 158.806 379.025, 158.755 378.935, 159.370 375.086 C 160.107 370.476, 159.614 369.991, 155.368 371.145 M 214.348 371.154 C 210.885 372.091, 211.247 370.685, 209.386 390.401 L 208.735 397.303 211.117 396.665 C 212.428 396.314, 214.014 396.021, 214.642 396.014 C 215.269 396.006, 216.083 394.805, 216.450 393.344 L 217.117 390.688 219.728 394.357 C 221.763 397.217, 222.798 397.887, 224.419 397.391 C 227.259 396.523, 229.266 394.806, 228.297 394.072 C 227.859 393.740, 226.259 392.097, 224.743 390.422 L 221.986 387.376 225.571 383.188 L 229.156 379 225.151 379 C 221.980 379, 220.687 379.573, 218.949 381.750 C 217.252 383.874, 216.882 384.045, 217.323 382.500 C 218.067 379.893, 218.529 371.176, 217.949 370.683 C 217.702 370.473, 216.082 370.685, 214.348 371.154 M 247 370.849 C 247 371.454, 245.630 372.657, 243.956 373.523 C 235.638 377.824, 234.504 391.624, 242.145 395.575 C 250.955 400.131, 262.007 393.138, 261.996 383.016 C 261.991 378.528, 258.788 373.251, 255.250 371.902 C 250.584 370.124, 247 369.667, 247 370.849 M 88.205 374.750 C 85.566 377.433, 85.552 377.507, 87.647 377.806 C 89.481 378.067, 89.742 378.652, 89.432 381.806 C 87.815 398.258, 87.790 398.171, 93.435 396.025 C 95.549 395.221, 96.008 394.385, 96.047 391.275 L 96.093 387.500 98.566 392.250 C 101.279 397.463, 101.318 397.482, 105.851 395.902 C 108.690 394.913, 110.227 393, 108.184 393 C 107.735 393, 106.395 391.269, 105.206 389.153 L 103.044 385.307 105.522 382.979 C 108.518 380.165, 108.702 376.702, 106 374 C 104.407 372.407, 102.667 372, 97.455 372 C 91.636 372, 90.609 372.306, 88.205 374.750 M 343.751 373.689 C 342.789 373.941, 341.732 375.220, 341.403 376.532 C 341.073 377.844, 340.173 379.442, 339.402 380.081 C 337.603 381.575, 337.589 384, 339.380 384 C 340.403 384, 340.726 385.433, 340.630 389.534 C 340.488 395.592, 341.503 396.958, 346.168 396.985 C 350.365 397.009, 352 395.983, 352 393.326 C 352 391.318, 351.631 390.982, 349.995 391.502 C 348.662 391.925, 347.788 391.612, 347.387 390.567 C 346.486 388.218, 347.833 384, 349.484 384 C 350.749 384, 353 381.161, 353 379.566 C 353 379.255, 351.886 379, 350.525 379 C 348.308 379, 348.113 378.687, 348.650 376 C 349.275 372.876, 348.415 372.470, 343.751 373.689 M 97 379.969 C 97 382.125, 97.389 382.788, 98.423 382.391 C 101.398 381.249, 101.413 377, 98.441 377 C 97.510 377, 97 378.051, 97 379.969 M 117.313 378.170 C 108.061 380.650, 107.483 394.326, 116.534 396.598 C 117.898 396.940, 120.585 396.925, 122.507 396.565 C 125.376 396.026, 126 395.469, 126 393.443 C 126 391.139, 125.745 391.017, 122.126 391.596 C 119.724 391.980, 117.991 391.794, 117.567 391.108 C 117.127 390.397, 117.898 390, 119.718 390 C 127.964 390, 129.766 380.368, 122 377.810 C 121.175 377.538, 119.066 377.700, 117.313 378.170 M 177.286 378.522 C 173.358 380.173, 172 382.676, 172 388.260 C 172 391.557, 172.577 393.193, 174.314 394.826 C 176.773 397.136, 181.426 397.738, 182.566 395.893 C 183.048 395.114, 183.487 395.169, 184.049 396.080 C 184.625 397.012, 185.456 397.102, 187.022 396.403 C 188.745 395.635, 189.270 394.405, 189.554 390.467 C 189.752 387.735, 190.185 383.587, 190.518 381.250 C 191.039 377.589, 190.872 377.002, 189.311 377.015 C 188.315 377.024, 186.863 377.434, 186.083 377.927 C 185.304 378.420, 183.710 378.460, 182.540 378.015 C 181.238 377.520, 179.201 377.717, 177.286 378.522 M 199.313 378.102 C 192.206 380.159, 189.469 389.559, 194.509 394.600 C 196.605 396.696, 197.798 397.059, 201.759 396.804 C 206.109 396.525, 206.526 396.271, 206.818 393.729 C 207.105 391.235, 206.852 390.979, 204.290 391.175 C 200.549 391.460, 199 390.402, 199 387.563 C 199 384.319, 201.405 382.631, 205.002 383.350 C 207.693 383.889, 208 383.694, 208 381.450 C 208 379.687, 207.244 378.663, 205.435 377.975 C 204.024 377.439, 202.787 377.041, 202.685 377.090 C 202.583 377.140, 201.066 377.595, 199.313 378.102 M 267 377.891 C 264.588 378.558, 264.460 379.020, 263.368 391.041 C 262.746 397.893, 262.387 403.667, 262.572 403.870 C 262.756 404.074, 264.503 403.941, 266.453 403.575 C 269.660 402.973, 270 402.595, 270 399.628 C 270 396.580, 270.205 396.376, 272.885 396.770 C 276.650 397.322, 279.604 395.666, 281.544 391.914 C 285.330 384.593, 280.909 375.563, 274.695 377.926 C 272.978 378.579, 272 378.597, 272 377.975 C 272 376.888, 270.706 376.866, 267 377.891 M 291 378.359 C 284.120 380.602, 282.147 389.991, 287.555 394.750 C 292.091 398.742, 301 397.285, 301 392.552 C 301 390.352, 300.786 390.254, 298.147 391.250 C 296.547 391.855, 294.462 391.974, 293.397 391.523 C 291.793 390.844, 292.021 390.602, 294.871 389.961 C 296.724 389.544, 299.177 388.267, 300.321 387.123 C 305.029 382.416, 298.213 376.008, 291 378.359 M 315.500 378.011 C 314.400 378.417, 312.150 378.549, 310.500 378.303 C 305.572 377.571, 304.310 379.496, 303.651 388.750 C 303.123 396.158, 303.241 397, 304.809 397 C 308.563 397, 311 394.104, 311 389.643 C 311 385.074, 312.321 383, 315.231 383 C 317.187 383, 318.382 381.023, 317.835 378.695 C 317.606 377.725, 316.865 377.508, 315.500 378.011 M 323.433 378.460 C 318.028 380.733, 316.190 389.429, 320.070 394.362 C 321.872 396.652, 322.813 396.972, 327.320 396.825 C 333.887 396.612, 335.750 395.681, 335.750 392.611 C 335.750 391.262, 336.067 387.198, 336.455 383.579 C 337.094 377.611, 336.989 377.001, 335.330 377.015 C 334.323 377.024, 332.863 377.434, 332.083 377.927 C 331.304 378.420, 329.710 378.460, 328.540 378.015 C 327.256 377.527, 325.233 377.703, 323.433 378.460 M 368.562 378.982 C 362.396 383.007, 361.274 389.427, 365.923 394.077 C 370.064 398.218, 375.959 398.195, 380.133 394.021 C 382.721 391.432, 383.071 390.431, 382.806 386.372 C 382.569 382.754, 381.936 381.287, 380 379.862 C 376.221 377.082, 371.973 376.755, 368.562 378.982 M 389 377.894 C 386.967 378.458, 386.374 379.420, 385.824 383.044 C 384.671 390.646, 384.866 397.008, 386.250 396.930 C 390.244 396.705, 391.494 395.197, 392.488 389.404 C 393.346 384.400, 393.845 383.451, 395.764 383.179 C 397.987 382.863, 398.015 382.985, 397.356 390.077 L 396.685 397.296 399.593 396.577 C 401.192 396.182, 402.826 395.541, 403.225 395.154 C 403.625 394.766, 404.075 391.163, 404.225 387.147 C 404.461 380.876, 404.225 379.643, 402.552 378.418 C 401.481 377.633, 399.794 377.218, 398.802 377.495 C 397.811 377.773, 396.044 378.273, 394.875 378.607 C 393.461 379.011, 392.978 378.844, 393.434 378.107 C 394.184 376.893, 392.837 376.828, 389 377.894 M 410.250 378.491 C 405.571 380.524, 405.344 386, 409.780 389.807 L 412.500 392.140 409.250 391.595 C 405.816 391.019, 405.676 391.188, 406.630 394.750 C 407.951 399.677, 419 396.126, 419 390.774 C 419 389.896, 417.650 388.042, 416 386.653 C 411.815 383.132, 411.857 380.783, 416.066 383.035 C 417.738 383.930, 418 383.732, 418 381.570 C 418 380.122, 417.186 378.635, 416.066 378.035 C 413.750 376.796, 414.238 376.758, 410.250 378.491 M 246.655 379.829 C 244.732 381.954, 244.453 388.053, 246.200 389.800 C 249.450 393.050, 254 389.741, 254 384.129 C 254 378.264, 250.124 375.995, 246.655 379.829 M 356.163 378.878 C 355.012 379.608, 352.702 395.733, 353.589 396.850 C 353.741 397.042, 355.471 396.670, 357.433 396.022 C 360.133 395.131, 361 394.291, 361 392.569 C 361 391.317, 361.289 387.527, 361.642 384.147 C 362.269 378.149, 362.227 378, 359.892 378.015 C 358.577 378.024, 356.898 378.412, 356.163 378.878 M 117.667 383.667 C 117.300 384.033, 117 384.666, 117 385.073 C 117 386.034, 120.866 385.026, 121.575 383.879 C 122.203 382.862, 118.664 382.669, 117.667 383.667 M 136.701 383.632 C 135.355 384.978, 135.923 392, 137.378 392 C 139.571 392, 141.172 389.360, 140.822 386.319 C 140.515 383.645, 138.198 382.135, 136.701 383.632 M 158.430 385.421 C 157.510 389.090, 158.307 391.500, 160.442 391.500 C 162.488 391.500, 164.322 387.002, 163.329 384.415 C 162.428 382.067, 159.101 382.750, 158.430 385.421 M 179.667 383.667 C 178.583 384.751, 178.907 390.824, 180.087 391.554 C 181.664 392.528, 182.750 391.015, 183.533 386.750 C 184.137 383.466, 183.981 383, 182.278 383 C 181.208 383, 180.033 383.300, 179.667 383.667 M 271.667 383.667 C 270.289 385.045, 270.990 391.059, 272.601 391.677 C 274.656 392.466, 275.965 390.366, 275.985 386.250 C 275.996 383.760, 275.572 383, 274.167 383 C 273.158 383, 272.033 383.300, 271.667 383.667 M 292.065 384.421 C 291.097 385.588, 291.257 385.746, 292.958 385.301 C 295.460 384.646, 296.693 383, 294.681 383 C 293.891 383, 292.714 383.640, 292.065 384.421 M 325.607 384.582 C 324.502 387.462, 324.977 391.054, 326.543 391.655 C 328.642 392.460, 329.079 391.830, 329.716 387.083 C 330.200 383.470, 330.030 383, 328.239 383 C 327.125 383, 325.941 383.712, 325.607 384.582 M 370.429 385.428 C 369.554 388.914, 370.804 392, 373.092 392 C 375.629 392, 377.407 387.628, 375.965 384.935 C 374.483 382.166, 371.173 382.461, 370.429 385.428" stroke="none" fill="#340d4b" fill-rule="evenodd"/></svg>